<svg xmlns="http://www.w3.org/2000/svg" width="53.531" height="72" viewBox="0 0 53.531 72"><path d="M29.714 52.981A46.989 46.989 0 0126.3 67.7c-.623 1.416-1.756 2.767-2.279 4.3h-.228v-1.132c.428-.665.219-1.575.456-2.491 1.128-4.357 1.213-10.17-.684-13.811-3.24-6.221-9.728-4.129-16.181-6.793a12.425 12.425 0 01-5.7-5.434L.316 38.49A14.911 14.911 0 011 30.339c3.107-8.131 10.872-11.709 20.284-7.245v-.679c-.807-1.1-.545-2.733-.912-4.3C19.387 13.896 18.628.048 23.335.002c1.277.926 3.731.885 3.875 2.944a1.666 1.666 0 00-.456 1.358h.228v-.229c.981-1.03 1.25-3.371 2.963-3.623 1.368 1.22 3.683 1.463 4.1 3.623a17.49 17.49 0 00-2.735 5.887h.456c1.428-1.877 7.312-7.251 10.028-6.793a14.113 14.113 0 012.051 4.3c-1.435.51-2.095 1.9-3.191 2.717-4 3-7.231 7.374-9.8 11.774h.684c1.569-1.22 7.973-1.811 10.712-1.132 7.222 1.792 9.252 4.271 10.939 11.547a13.388 13.388 0 01.228 4.755c-2.183 9.442-6.79 14.209-16.409 16.3-2.572.563-5.135-.33-7.294-.449z" fill="#f6f6f6" fill-rule="evenodd"/></svg>