<svg xmlns="http://www.w3.org/2000/svg" width="22" height="38" viewBox="0 0 22 38">
  <defs>
    <style>
      .cls-1 {
        fill: #e6e6e6;
        fill-rule: evenodd;
      }
    </style>
  </defs>
  <path id="arrow_right.svg" class="cls-1" d="M1410.12,3161.53a1.124,1.124,0,0,0,.36,1.46l20.06,17.87a0.942,0.942,0,0,0,1.34-.39,1.122,1.122,0,0,0-.36-1.46l-20.06-17.87A0.942,0.942,0,0,0,1410.12,3161.53Zm0,36.94a1.122,1.122,0,0,1,.36-1.46l20.06-17.87a0.942,0.942,0,0,1,1.34.39,1.124,1.124,0,0,1-.36,1.46l-20.06,17.87A0.942,0.942,0,0,1,1410.12,3198.47Z" transform="translate(-1410 -3161)"/>
</svg>
