<svg xmlns="http://www.w3.org/2000/svg" width="36" height="21" viewBox="0 0 36 21">
  <defs>
    <style>
      .cls-1 {
        fill: #e6e6e6;
        fill-rule: evenodd;
      }
    </style>
  </defs>
  <path id="ico-arrow-top.svg" class="cls-1" d="M1446.49,5308.88a1.065,1.065,0,0,1-1.38-.35l-16.92-19.13a0.9,0.9,0,0,1,.37-1.28,1.065,1.065,0,0,1,1.38.35l16.92,19.13A0.9,0.9,0,0,1,1446.49,5308.88Zm-34.98,0a1.065,1.065,0,0,0,1.38-.35l16.92-19.13a0.9,0.9,0,0,0-.37-1.28,1.065,1.065,0,0,0-1.38.35l-16.92,19.13A0.9,0.9,0,0,0,1411.51,5308.88Z" transform="translate(-1411 -5288)"/>
</svg>
